<mxfile host="Electron" agent="Mozilla/5.0 (Windows NT 10.0; Win64; x64) AppleWebKit/537.36 (KHTML, like Gecko) draw.io/26.0.16 Chrome/132.0.6834.196 Electron/34.2.0 Safari/537.36" version="26.0.16" pages="6">
  <diagram name="region_创建流程" id="_d1cPcAzwJBIYFqM5xj1">
    <mxGraphModel dx="1195" dy="703" grid="1" gridSize="10" guides="1" tooltips="1" connect="1" arrows="1" fold="1" page="1" pageScale="1" pageWidth="827" pageHeight="1169" math="0" shadow="0">
      <root>
        <mxCell id="0" />
        <mxCell id="1" parent="0" />
        <mxCell id="6Qjy8TFS_VatP4liiEhb-2" style="edgeStyle=orthogonalEdgeStyle;rounded=0;orthogonalLoop=1;jettySize=auto;html=1;" edge="1" parent="1" source="6Qjy8TFS_VatP4liiEhb-1">
          <mxGeometry relative="1" as="geometry">
            <mxPoint x="76" y="680" as="targetPoint" />
          </mxGeometry>
        </mxCell>
        <mxCell id="6Qjy8TFS_VatP4liiEhb-1" value="dingodb_br" style="shape=umlActor;verticalLabelPosition=bottom;verticalAlign=top;html=1;outlineConnect=0;" vertex="1" parent="1">
          <mxGeometry x="61" y="150" width="30" height="60" as="geometry" />
        </mxCell>
        <mxCell id="6Qjy8TFS_VatP4liiEhb-3" style="edgeStyle=orthogonalEdgeStyle;rounded=0;orthogonalLoop=1;jettySize=auto;html=1;" edge="1" parent="1" source="6Qjy8TFS_VatP4liiEhb-4">
          <mxGeometry relative="1" as="geometry">
            <mxPoint x="291" y="680" as="targetPoint" />
          </mxGeometry>
        </mxCell>
        <mxCell id="6Qjy8TFS_VatP4liiEhb-4" value="coordinator" style="shape=umlActor;verticalLabelPosition=bottom;verticalAlign=top;html=1;outlineConnect=0;" vertex="1" parent="1">
          <mxGeometry x="276" y="150" width="30" height="60" as="geometry" />
        </mxCell>
        <mxCell id="6Qjy8TFS_VatP4liiEhb-7" style="edgeStyle=orthogonalEdgeStyle;rounded=0;orthogonalLoop=1;jettySize=auto;html=1;" edge="1" parent="1" source="6Qjy8TFS_VatP4liiEhb-8">
          <mxGeometry relative="1" as="geometry">
            <mxPoint x="454" y="680" as="targetPoint" />
          </mxGeometry>
        </mxCell>
        <mxCell id="6Qjy8TFS_VatP4liiEhb-8" value="store" style="shape=umlActor;verticalLabelPosition=bottom;verticalAlign=top;html=1;outlineConnect=0;" vertex="1" parent="1">
          <mxGeometry x="439" y="150" width="30" height="60" as="geometry" />
        </mxCell>
        <mxCell id="6Qjy8TFS_VatP4liiEhb-9" style="edgeStyle=orthogonalEdgeStyle;rounded=0;orthogonalLoop=1;jettySize=auto;html=1;" edge="1" parent="1" source="6Qjy8TFS_VatP4liiEhb-10">
          <mxGeometry relative="1" as="geometry">
            <mxPoint x="580" y="680" as="targetPoint" />
          </mxGeometry>
        </mxCell>
        <mxCell id="6Qjy8TFS_VatP4liiEhb-10" value="index" style="shape=umlActor;verticalLabelPosition=bottom;verticalAlign=top;html=1;outlineConnect=0;" vertex="1" parent="1">
          <mxGeometry x="565" y="150" width="30" height="60" as="geometry" />
        </mxCell>
        <mxCell id="6Qjy8TFS_VatP4liiEhb-11" style="edgeStyle=orthogonalEdgeStyle;rounded=0;orthogonalLoop=1;jettySize=auto;html=1;" edge="1" parent="1" source="6Qjy8TFS_VatP4liiEhb-12">
          <mxGeometry relative="1" as="geometry">
            <mxPoint x="709" y="679" as="targetPoint" />
          </mxGeometry>
        </mxCell>
        <mxCell id="6Qjy8TFS_VatP4liiEhb-12" value="document" style="shape=umlActor;verticalLabelPosition=bottom;verticalAlign=top;html=1;outlineConnect=0;" vertex="1" parent="1">
          <mxGeometry x="694" y="149" width="30" height="60" as="geometry" />
        </mxCell>
        <mxCell id="6Qjy8TFS_VatP4liiEhb-13" value="" style="endArrow=classic;html=1;rounded=0;" edge="1" parent="1">
          <mxGeometry width="50" height="50" relative="1" as="geometry">
            <mxPoint x="80" y="260" as="sourcePoint" />
            <mxPoint x="290" y="260" as="targetPoint" />
          </mxGeometry>
        </mxCell>
        <mxCell id="6Qjy8TFS_VatP4liiEhb-14" value="CreateRegionRequest" style="text;html=1;align=center;verticalAlign=middle;whiteSpace=wrap;rounded=0;" vertex="1" parent="1">
          <mxGeometry x="150" y="231" width="60" height="30" as="geometry" />
        </mxCell>
        <mxCell id="6Qjy8TFS_VatP4liiEhb-15" value="" style="endArrow=classic;html=1;rounded=0;" edge="1" parent="1">
          <mxGeometry width="50" height="50" relative="1" as="geometry">
            <mxPoint x="290" y="310" as="sourcePoint" />
            <mxPoint x="80" y="310" as="targetPoint" />
          </mxGeometry>
        </mxCell>
        <mxCell id="6Qjy8TFS_VatP4liiEhb-16" value="CreateRegionResponse" style="text;html=1;align=center;verticalAlign=middle;whiteSpace=wrap;rounded=0;" vertex="1" parent="1">
          <mxGeometry x="150" y="280" width="60" height="30" as="geometry" />
        </mxCell>
        <mxCell id="6Qjy8TFS_VatP4liiEhb-19" value="" style="endArrow=classic;html=1;rounded=0;" edge="1" parent="1">
          <mxGeometry width="50" height="50" relative="1" as="geometry">
            <mxPoint x="293" y="366" as="sourcePoint" />
            <mxPoint x="450" y="366" as="targetPoint" />
          </mxGeometry>
        </mxCell>
        <mxCell id="6Qjy8TFS_VatP4liiEhb-20" value="RealCreateRegionRequest" style="text;html=1;align=center;verticalAlign=middle;whiteSpace=wrap;rounded=0;" vertex="1" parent="1">
          <mxGeometry x="339" y="340" width="60" height="30" as="geometry" />
        </mxCell>
        <mxCell id="6Qjy8TFS_VatP4liiEhb-23" value="" style="endArrow=classic;html=1;rounded=0;" edge="1" parent="1">
          <mxGeometry width="50" height="50" relative="1" as="geometry">
            <mxPoint x="450" y="420" as="sourcePoint" />
            <mxPoint x="290" y="420" as="targetPoint" />
          </mxGeometry>
        </mxCell>
        <mxCell id="6Qjy8TFS_VatP4liiEhb-24" value="RealCreateRegionResponse" style="text;html=1;align=center;verticalAlign=middle;whiteSpace=wrap;rounded=0;" vertex="1" parent="1">
          <mxGeometry x="340" y="390" width="60" height="30" as="geometry" />
        </mxCell>
        <mxCell id="6Qjy8TFS_VatP4liiEhb-27" value="" style="endArrow=classic;html=1;rounded=0;" edge="1" parent="1">
          <mxGeometry width="50" height="50" relative="1" as="geometry">
            <mxPoint x="295" y="466" as="sourcePoint" />
            <mxPoint x="580" y="466" as="targetPoint" />
          </mxGeometry>
        </mxCell>
        <mxCell id="6Qjy8TFS_VatP4liiEhb-28" value="RealCreateRegionRequest" style="text;html=1;align=center;verticalAlign=middle;whiteSpace=wrap;rounded=0;" vertex="1" parent="1">
          <mxGeometry x="399" y="440" width="60" height="30" as="geometry" />
        </mxCell>
        <mxCell id="6Qjy8TFS_VatP4liiEhb-29" value="" style="endArrow=classic;html=1;rounded=0;" edge="1" parent="1">
          <mxGeometry width="50" height="50" relative="1" as="geometry">
            <mxPoint x="580" y="520" as="sourcePoint" />
            <mxPoint x="292" y="520" as="targetPoint" />
          </mxGeometry>
        </mxCell>
        <mxCell id="6Qjy8TFS_VatP4liiEhb-30" value="RealCreateRegionResponse" style="text;html=1;align=center;verticalAlign=middle;whiteSpace=wrap;rounded=0;" vertex="1" parent="1">
          <mxGeometry x="399" y="490" width="60" height="30" as="geometry" />
        </mxCell>
        <mxCell id="6Qjy8TFS_VatP4liiEhb-31" value="" style="endArrow=classic;html=1;rounded=0;" edge="1" parent="1">
          <mxGeometry width="50" height="50" relative="1" as="geometry">
            <mxPoint x="293" y="558" as="sourcePoint" />
            <mxPoint x="710" y="558" as="targetPoint" />
          </mxGeometry>
        </mxCell>
        <mxCell id="6Qjy8TFS_VatP4liiEhb-32" value="RealCreateRegionRequest" style="text;html=1;align=center;verticalAlign=middle;whiteSpace=wrap;rounded=0;" vertex="1" parent="1">
          <mxGeometry x="500" y="532" width="60" height="30" as="geometry" />
        </mxCell>
        <mxCell id="6Qjy8TFS_VatP4liiEhb-33" value="" style="endArrow=classic;html=1;rounded=0;" edge="1" parent="1">
          <mxGeometry width="50" height="50" relative="1" as="geometry">
            <mxPoint x="710" y="612" as="sourcePoint" />
            <mxPoint x="290" y="612" as="targetPoint" />
          </mxGeometry>
        </mxCell>
        <mxCell id="6Qjy8TFS_VatP4liiEhb-34" value="RealCreateRegionResponse" style="text;html=1;align=center;verticalAlign=middle;whiteSpace=wrap;rounded=0;" vertex="1" parent="1">
          <mxGeometry x="490" y="585" width="60" height="30" as="geometry" />
        </mxCell>
      </root>
    </mxGraphModel>
  </diagram>
  <diagram name="数据库整体流程" id="inK4jxxwUpLMgwfpDovS">
    <mxGraphModel dx="1434" dy="844" grid="1" gridSize="10" guides="1" tooltips="1" connect="1" arrows="1" fold="1" page="1" pageScale="1" pageWidth="827" pageHeight="1169" math="0" shadow="0">
      <root>
        <mxCell id="LCy5eDedeA71RUnT44q0-0" />
        <mxCell id="LCy5eDedeA71RUnT44q0-1" parent="LCy5eDedeA71RUnT44q0-0" />
        <mxCell id="QywTMQ0TsTlZfRl5LuwN-7" style="edgeStyle=orthogonalEdgeStyle;rounded=0;orthogonalLoop=1;jettySize=auto;html=1;exitX=0.5;exitY=1;exitDx=0;exitDy=0;entryX=0.5;entryY=0;entryDx=0;entryDy=0;" parent="LCy5eDedeA71RUnT44q0-1" source="QywTMQ0TsTlZfRl5LuwN-0" target="QywTMQ0TsTlZfRl5LuwN-2" edge="1">
          <mxGeometry relative="1" as="geometry" />
        </mxCell>
        <mxCell id="QywTMQ0TsTlZfRl5LuwN-0" value="开始" style="ellipse;whiteSpace=wrap;html=1;aspect=fixed;" parent="LCy5eDedeA71RUnT44q0-1" vertex="1">
          <mxGeometry x="374" y="97" width="80" height="80" as="geometry" />
        </mxCell>
        <mxCell id="QywTMQ0TsTlZfRl5LuwN-1" value="结束" style="ellipse;whiteSpace=wrap;html=1;aspect=fixed;" parent="LCy5eDedeA71RUnT44q0-1" vertex="1">
          <mxGeometry x="374" y="785" width="80" height="80" as="geometry" />
        </mxCell>
        <mxCell id="QywTMQ0TsTlZfRl5LuwN-8" style="edgeStyle=orthogonalEdgeStyle;rounded=0;orthogonalLoop=1;jettySize=auto;html=1;exitX=0.5;exitY=1;exitDx=0;exitDy=0;entryX=0.5;entryY=0;entryDx=0;entryDy=0;" parent="LCy5eDedeA71RUnT44q0-1" source="QywTMQ0TsTlZfRl5LuwN-2" target="QywTMQ0TsTlZfRl5LuwN-3" edge="1">
          <mxGeometry relative="1" as="geometry" />
        </mxCell>
        <mxCell id="QywTMQ0TsTlZfRl5LuwN-2" value="租户" style="rounded=1;whiteSpace=wrap;html=1;" parent="LCy5eDedeA71RUnT44q0-1" vertex="1">
          <mxGeometry x="354" y="226" width="120" height="60" as="geometry" />
        </mxCell>
        <mxCell id="QywTMQ0TsTlZfRl5LuwN-9" style="edgeStyle=orthogonalEdgeStyle;rounded=0;orthogonalLoop=1;jettySize=auto;html=1;exitX=0.5;exitY=1;exitDx=0;exitDy=0;entryX=0.5;entryY=0;entryDx=0;entryDy=0;" parent="LCy5eDedeA71RUnT44q0-1" source="QywTMQ0TsTlZfRl5LuwN-3" target="QywTMQ0TsTlZfRl5LuwN-4" edge="1">
          <mxGeometry relative="1" as="geometry" />
        </mxCell>
        <mxCell id="QywTMQ0TsTlZfRl5LuwN-3" value="Schema/Database" style="rounded=1;whiteSpace=wrap;html=1;" parent="LCy5eDedeA71RUnT44q0-1" vertex="1">
          <mxGeometry x="354" y="349" width="120" height="60" as="geometry" />
        </mxCell>
        <mxCell id="QywTMQ0TsTlZfRl5LuwN-10" style="edgeStyle=orthogonalEdgeStyle;rounded=0;orthogonalLoop=1;jettySize=auto;html=1;exitX=0.5;exitY=1;exitDx=0;exitDy=0;entryX=0.5;entryY=0;entryDx=0;entryDy=0;" parent="LCy5eDedeA71RUnT44q0-1" source="QywTMQ0TsTlZfRl5LuwN-4" target="QywTMQ0TsTlZfRl5LuwN-5" edge="1">
          <mxGeometry relative="1" as="geometry" />
        </mxCell>
        <mxCell id="QywTMQ0TsTlZfRl5LuwN-4" value="Table" style="rounded=1;whiteSpace=wrap;html=1;" parent="LCy5eDedeA71RUnT44q0-1" vertex="1">
          <mxGeometry x="354" y="461" width="120" height="60" as="geometry" />
        </mxCell>
        <mxCell id="QywTMQ0TsTlZfRl5LuwN-11" style="edgeStyle=orthogonalEdgeStyle;rounded=0;orthogonalLoop=1;jettySize=auto;html=1;exitX=0.5;exitY=1;exitDx=0;exitDy=0;entryX=0.5;entryY=0;entryDx=0;entryDy=0;" parent="LCy5eDedeA71RUnT44q0-1" source="QywTMQ0TsTlZfRl5LuwN-5" target="QywTMQ0TsTlZfRl5LuwN-6" edge="1">
          <mxGeometry relative="1" as="geometry" />
        </mxCell>
        <mxCell id="QywTMQ0TsTlZfRl5LuwN-5" value="Region" style="rounded=1;whiteSpace=wrap;html=1;" parent="LCy5eDedeA71RUnT44q0-1" vertex="1">
          <mxGeometry x="354" y="574" width="120" height="60" as="geometry" />
        </mxCell>
        <mxCell id="QywTMQ0TsTlZfRl5LuwN-12" style="edgeStyle=orthogonalEdgeStyle;rounded=0;orthogonalLoop=1;jettySize=auto;html=1;exitX=0.5;exitY=1;exitDx=0;exitDy=0;entryX=0.5;entryY=0;entryDx=0;entryDy=0;" parent="LCy5eDedeA71RUnT44q0-1" source="QywTMQ0TsTlZfRl5LuwN-6" target="QywTMQ0TsTlZfRl5LuwN-1" edge="1">
          <mxGeometry relative="1" as="geometry" />
        </mxCell>
        <mxCell id="QywTMQ0TsTlZfRl5LuwN-6" value="RegionData" style="rounded=1;whiteSpace=wrap;html=1;" parent="LCy5eDedeA71RUnT44q0-1" vertex="1">
          <mxGeometry x="354" y="680" width="120" height="60" as="geometry" />
        </mxCell>
      </root>
    </mxGraphModel>
  </diagram>
  <diagram id="riYmqrK3fBqINSXiEzPB" name="线程池">
    <mxGraphModel dx="1434" dy="844" grid="1" gridSize="10" guides="1" tooltips="1" connect="1" arrows="1" fold="1" page="1" pageScale="1" pageWidth="827" pageHeight="1169" math="0" shadow="0">
      <root>
        <mxCell id="0" />
        <mxCell id="1" parent="0" />
        <mxCell id="vUg5fsFDycVQwF3OycOY-1" value="" style="rounded=0;whiteSpace=wrap;html=1;fontSize=15;" vertex="1" parent="1">
          <mxGeometry x="150" y="175" width="840" height="405" as="geometry" />
        </mxCell>
        <mxCell id="vUg5fsFDycVQwF3OycOY-2" value="" style="rounded=0;whiteSpace=wrap;html=1;fontSize=15;" vertex="1" parent="1">
          <mxGeometry x="480" y="250" width="160" height="290" as="geometry" />
        </mxCell>
        <mxCell id="vUg5fsFDycVQwF3OycOY-3" value="" style="shape=umlLifeline;participant=umlEntity;perimeter=lifelinePerimeter;whiteSpace=wrap;html=1;container=1;collapsible=0;recursiveResize=0;verticalAlign=top;spacingTop=36;outlineConnect=0;" vertex="1" parent="1">
          <mxGeometry x="190" y="230" width="40" height="300" as="geometry" />
        </mxCell>
        <mxCell id="vUg5fsFDycVQwF3OycOY-4" value="" style="shape=umlLifeline;participant=umlEntity;perimeter=lifelinePerimeter;whiteSpace=wrap;html=1;container=1;collapsible=0;recursiveResize=0;verticalAlign=top;spacingTop=36;outlineConnect=0;" vertex="1" parent="1">
          <mxGeometry x="340" y="230" width="40" height="300" as="geometry" />
        </mxCell>
        <mxCell id="vUg5fsFDycVQwF3OycOY-5" value="" style="shape=umlLifeline;participant=umlEntity;perimeter=lifelinePerimeter;whiteSpace=wrap;html=1;container=1;collapsible=0;recursiveResize=0;verticalAlign=top;spacingTop=36;outlineConnect=0;" vertex="1" parent="1">
          <mxGeometry x="734" y="230" width="40" height="300" as="geometry" />
        </mxCell>
        <mxCell id="vUg5fsFDycVQwF3OycOY-6" value="" style="shape=umlLifeline;participant=umlEntity;perimeter=lifelinePerimeter;whiteSpace=wrap;html=1;container=1;collapsible=0;recursiveResize=0;verticalAlign=top;spacingTop=36;outlineConnect=0;" vertex="1" parent="1">
          <mxGeometry x="884" y="230" width="40" height="300" as="geometry" />
        </mxCell>
        <mxCell id="vUg5fsFDycVQwF3OycOY-7" value="线程1" style="text;html=1;strokeColor=none;fillColor=none;align=center;verticalAlign=middle;whiteSpace=wrap;rounded=0;fontSize=20;" vertex="1" parent="1">
          <mxGeometry x="180" y="190" width="60" height="30" as="geometry" />
        </mxCell>
        <mxCell id="vUg5fsFDycVQwF3OycOY-8" value="线程2" style="text;html=1;strokeColor=none;fillColor=none;align=center;verticalAlign=middle;whiteSpace=wrap;rounded=0;fontSize=20;" vertex="1" parent="1">
          <mxGeometry x="330" y="190" width="60" height="30" as="geometry" />
        </mxCell>
        <mxCell id="vUg5fsFDycVQwF3OycOY-9" value="线程3" style="text;html=1;strokeColor=none;fillColor=none;align=center;verticalAlign=middle;whiteSpace=wrap;rounded=0;fontSize=20;" vertex="1" parent="1">
          <mxGeometry x="724" y="190" width="60" height="30" as="geometry" />
        </mxCell>
        <mxCell id="vUg5fsFDycVQwF3OycOY-10" value="线程4" style="text;html=1;strokeColor=none;fillColor=none;align=center;verticalAlign=middle;whiteSpace=wrap;rounded=0;fontSize=20;" vertex="1" parent="1">
          <mxGeometry x="874" y="190" width="60" height="30" as="geometry" />
        </mxCell>
        <mxCell id="vUg5fsFDycVQwF3OycOY-11" value="任务1" style="rounded=0;whiteSpace=wrap;html=1;fontSize=20;" vertex="1" parent="1">
          <mxGeometry x="500" y="268" width="120" height="30" as="geometry" />
        </mxCell>
        <mxCell id="vUg5fsFDycVQwF3OycOY-12" value="任务2" style="rounded=0;whiteSpace=wrap;html=1;fontSize=20;" vertex="1" parent="1">
          <mxGeometry x="500" y="298" width="120" height="30" as="geometry" />
        </mxCell>
        <mxCell id="vUg5fsFDycVQwF3OycOY-13" value="任务3" style="rounded=0;whiteSpace=wrap;html=1;fontSize=20;" vertex="1" parent="1">
          <mxGeometry x="500" y="328" width="120" height="30" as="geometry" />
        </mxCell>
        <mxCell id="vUg5fsFDycVQwF3OycOY-14" value="任务N" style="rounded=0;whiteSpace=wrap;html=1;fontSize=20;" vertex="1" parent="1">
          <mxGeometry x="499" y="436" width="120" height="30" as="geometry" />
        </mxCell>
        <mxCell id="vUg5fsFDycVQwF3OycOY-15" value="任务N+1" style="rounded=0;whiteSpace=wrap;html=1;fontSize=20;" vertex="1" parent="1">
          <mxGeometry x="499" y="466" width="120" height="30" as="geometry" />
        </mxCell>
        <mxCell id="vUg5fsFDycVQwF3OycOY-16" value="任务+2" style="rounded=0;whiteSpace=wrap;html=1;fontSize=20;" vertex="1" parent="1">
          <mxGeometry x="499" y="496" width="120" height="30" as="geometry" />
        </mxCell>
        <mxCell id="vUg5fsFDycVQwF3OycOY-17" value="" style="endArrow=none;dashed=1;html=1;dashPattern=1 3;strokeWidth=2;fontSize=50;" edge="1" parent="1">
          <mxGeometry width="50" height="50" relative="1" as="geometry">
            <mxPoint x="562" y="420" as="sourcePoint" />
            <mxPoint x="562" y="376" as="targetPoint" />
          </mxGeometry>
        </mxCell>
        <mxCell id="vUg5fsFDycVQwF3OycOY-18" value="" style="endArrow=classic;html=1;fontSize=50;entryX=0;entryY=0.75;entryDx=0;entryDy=0;" edge="1" parent="1" source="vUg5fsFDycVQwF3OycOY-3" target="vUg5fsFDycVQwF3OycOY-11">
          <mxGeometry width="50" height="50" relative="1" as="geometry">
            <mxPoint x="210" y="320" as="sourcePoint" />
            <mxPoint x="260" y="270" as="targetPoint" />
          </mxGeometry>
        </mxCell>
        <mxCell id="vUg5fsFDycVQwF3OycOY-19" value="" style="endArrow=classic;html=1;fontSize=50;entryX=0;entryY=0.5;entryDx=0;entryDy=0;" edge="1" parent="1" source="vUg5fsFDycVQwF3OycOY-4" target="vUg5fsFDycVQwF3OycOY-12">
          <mxGeometry width="50" height="50" relative="1" as="geometry">
            <mxPoint x="360" y="340" as="sourcePoint" />
            <mxPoint x="410" y="290" as="targetPoint" />
          </mxGeometry>
        </mxCell>
        <mxCell id="vUg5fsFDycVQwF3OycOY-20" value="" style="endArrow=classic;html=1;fontSize=50;entryX=1;entryY=0.5;entryDx=0;entryDy=0;" edge="1" parent="1" source="vUg5fsFDycVQwF3OycOY-5" target="vUg5fsFDycVQwF3OycOY-13">
          <mxGeometry width="50" height="50" relative="1" as="geometry">
            <mxPoint x="670" y="400" as="sourcePoint" />
            <mxPoint x="720" y="350" as="targetPoint" />
          </mxGeometry>
        </mxCell>
        <mxCell id="vUg5fsFDycVQwF3OycOY-21" value="" style="endArrow=classic;html=1;fontSize=50;entryX=1;entryY=0.5;entryDx=0;entryDy=0;" edge="1" parent="1" source="vUg5fsFDycVQwF3OycOY-6" target="vUg5fsFDycVQwF3OycOY-14">
          <mxGeometry width="50" height="50" relative="1" as="geometry">
            <mxPoint x="763.5000000000002" y="353" as="sourcePoint" />
            <mxPoint x="630" y="353" as="targetPoint" />
          </mxGeometry>
        </mxCell>
        <mxCell id="vUg5fsFDycVQwF3OycOY-22" value="&lt;font style=&quot;font-size: 15px;&quot;&gt;获取任务&lt;/font&gt;" style="text;html=1;strokeColor=none;fillColor=none;align=center;verticalAlign=middle;whiteSpace=wrap;rounded=0;fontSize=10;" vertex="1" parent="1">
          <mxGeometry x="250" y="263" width="90" height="30" as="geometry" />
        </mxCell>
        <mxCell id="vUg5fsFDycVQwF3OycOY-23" value="&lt;font style=&quot;font-size: 15px;&quot;&gt;获取任务&lt;/font&gt;" style="text;html=1;strokeColor=none;fillColor=none;align=center;verticalAlign=middle;whiteSpace=wrap;rounded=0;fontSize=10;" vertex="1" parent="1">
          <mxGeometry x="380" y="289" width="90" height="30" as="geometry" />
        </mxCell>
        <mxCell id="vUg5fsFDycVQwF3OycOY-24" value="&lt;font style=&quot;font-size: 15px;&quot;&gt;获取任务&lt;/font&gt;" style="text;html=1;strokeColor=none;fillColor=none;align=center;verticalAlign=middle;whiteSpace=wrap;rounded=0;fontSize=10;" vertex="1" parent="1">
          <mxGeometry x="634" y="317" width="90" height="30" as="geometry" />
        </mxCell>
        <mxCell id="vUg5fsFDycVQwF3OycOY-25" value="&lt;font style=&quot;font-size: 15px;&quot;&gt;获取任务&lt;/font&gt;" style="text;html=1;strokeColor=none;fillColor=none;align=center;verticalAlign=middle;whiteSpace=wrap;rounded=0;fontSize=10;" vertex="1" parent="1">
          <mxGeometry x="660" y="420" width="90" height="30" as="geometry" />
        </mxCell>
        <mxCell id="vUg5fsFDycVQwF3OycOY-26" value="工作队列" style="text;html=1;strokeColor=none;fillColor=none;align=center;verticalAlign=middle;whiteSpace=wrap;rounded=0;fontSize=15;" vertex="1" parent="1">
          <mxGeometry x="520" y="210" width="70" height="30" as="geometry" />
        </mxCell>
        <mxCell id="vUg5fsFDycVQwF3OycOY-27" value="Text" style="text;html=1;strokeColor=none;fillColor=none;align=center;verticalAlign=middle;whiteSpace=wrap;rounded=0;fontSize=15;" vertex="1" parent="1">
          <mxGeometry x="580" y="310" width="60" height="30" as="geometry" />
        </mxCell>
        <mxCell id="vUg5fsFDycVQwF3OycOY-28" value="线程池" style="text;html=1;strokeColor=none;fillColor=none;align=center;verticalAlign=middle;whiteSpace=wrap;rounded=0;fontSize=30;" vertex="1" parent="1">
          <mxGeometry x="481" y="131" width="131" height="30" as="geometry" />
        </mxCell>
      </root>
    </mxGraphModel>
  </diagram>
  <diagram name="CreateRegion-方法1" id="iAlMngKBu-LyznYiJw8m">
    <mxGraphModel dx="1366" dy="804" grid="1" gridSize="10" guides="1" tooltips="1" connect="1" arrows="1" fold="1" page="1" pageScale="1" pageWidth="827" pageHeight="1169" math="0" shadow="0">
      <root>
        <mxCell id="2sW75nbbZIL8vPLbLa2m-0" />
        <mxCell id="2sW75nbbZIL8vPLbLa2m-1" parent="2sW75nbbZIL8vPLbLa2m-0" />
        <mxCell id="2sW75nbbZIL8vPLbLa2m-4" value="" style="shape=umlLifeline;participant=umlEntity;perimeter=lifelinePerimeter;whiteSpace=wrap;html=1;container=1;collapsible=0;recursiveResize=0;verticalAlign=top;spacingTop=36;outlineConnect=0;" vertex="1" parent="2sW75nbbZIL8vPLbLa2m-1">
          <mxGeometry x="95" y="403" width="40" height="300" as="geometry" />
        </mxCell>
        <mxCell id="T2VyFEbcRSwweSqbqmeI-7" value="" style="html=1;points=[[0,0,0,0,5],[0,1,0,0,-5],[1,0,0,0,5],[1,1,0,0,-5]];perimeter=orthogonalPerimeter;outlineConnect=0;targetShapes=umlLifeline;portConstraint=eastwest;newEdgeStyle={&quot;curved&quot;:0,&quot;rounded&quot;:0};" vertex="1" parent="2sW75nbbZIL8vPLbLa2m-4">
          <mxGeometry x="15" y="110" width="10" height="40" as="geometry" />
        </mxCell>
        <mxCell id="T2VyFEbcRSwweSqbqmeI-8" value="创建Region定义" style="html=1;align=left;spacingLeft=2;endArrow=block;rounded=0;edgeStyle=orthogonalEdgeStyle;curved=0;rounded=0;" edge="1" target="T2VyFEbcRSwweSqbqmeI-7" parent="2sW75nbbZIL8vPLbLa2m-4">
          <mxGeometry relative="1" as="geometry">
            <mxPoint x="20" y="90" as="sourcePoint" />
            <Array as="points">
              <mxPoint x="50" y="120" />
            </Array>
          </mxGeometry>
        </mxCell>
        <mxCell id="2sW75nbbZIL8vPLbLa2m-8" value="线程1" style="text;html=1;strokeColor=none;fillColor=none;align=center;verticalAlign=middle;whiteSpace=wrap;rounded=0;fontSize=20;" vertex="1" parent="2sW75nbbZIL8vPLbLa2m-1">
          <mxGeometry x="85" y="363" width="60" height="30" as="geometry" />
        </mxCell>
        <mxCell id="T2VyFEbcRSwweSqbqmeI-11" value="" style="html=1;points=[[0,0,0,0,5],[0,1,0,0,-5],[1,0,0,0,5],[1,1,0,0,-5]];perimeter=orthogonalPerimeter;outlineConnect=0;targetShapes=umlLifeline;portConstraint=eastwest;newEdgeStyle={&quot;curved&quot;:0,&quot;rounded&quot;:0};" vertex="1" parent="2sW75nbbZIL8vPLbLa2m-1">
          <mxGeometry x="109" y="613" width="10" height="40" as="geometry" />
        </mxCell>
        <mxCell id="T2VyFEbcRSwweSqbqmeI-12" value="等待Region真正创建好" style="html=1;align=left;spacingLeft=2;endArrow=block;rounded=0;edgeStyle=orthogonalEdgeStyle;curved=0;rounded=0;" edge="1" parent="2sW75nbbZIL8vPLbLa2m-1" target="T2VyFEbcRSwweSqbqmeI-11">
          <mxGeometry x="0.0118" relative="1" as="geometry">
            <mxPoint x="114" y="593" as="sourcePoint" />
            <Array as="points">
              <mxPoint x="144" y="623" />
            </Array>
            <mxPoint as="offset" />
          </mxGeometry>
        </mxCell>
        <mxCell id="T2VyFEbcRSwweSqbqmeI-17" value="" style="shape=umlLifeline;participant=umlEntity;perimeter=lifelinePerimeter;whiteSpace=wrap;html=1;container=1;collapsible=0;recursiveResize=0;verticalAlign=top;spacingTop=36;outlineConnect=0;" vertex="1" parent="2sW75nbbZIL8vPLbLa2m-1">
          <mxGeometry x="269" y="403" width="40" height="300" as="geometry" />
        </mxCell>
        <mxCell id="T2VyFEbcRSwweSqbqmeI-18" value="" style="html=1;points=[[0,0,0,0,5],[0,1,0,0,-5],[1,0,0,0,5],[1,1,0,0,-5]];perimeter=orthogonalPerimeter;outlineConnect=0;targetShapes=umlLifeline;portConstraint=eastwest;newEdgeStyle={&quot;curved&quot;:0,&quot;rounded&quot;:0};" vertex="1" parent="T2VyFEbcRSwweSqbqmeI-17">
          <mxGeometry x="15" y="110" width="10" height="40" as="geometry" />
        </mxCell>
        <mxCell id="T2VyFEbcRSwweSqbqmeI-19" value="创建Region定义" style="html=1;align=left;spacingLeft=2;endArrow=block;rounded=0;edgeStyle=orthogonalEdgeStyle;curved=0;rounded=0;" edge="1" parent="T2VyFEbcRSwweSqbqmeI-17" target="T2VyFEbcRSwweSqbqmeI-18">
          <mxGeometry relative="1" as="geometry">
            <mxPoint x="20" y="90" as="sourcePoint" />
            <Array as="points">
              <mxPoint x="50" y="120" />
            </Array>
          </mxGeometry>
        </mxCell>
        <mxCell id="T2VyFEbcRSwweSqbqmeI-20" value="线程2" style="text;html=1;strokeColor=none;fillColor=none;align=center;verticalAlign=middle;whiteSpace=wrap;rounded=0;fontSize=20;" vertex="1" parent="2sW75nbbZIL8vPLbLa2m-1">
          <mxGeometry x="259" y="363" width="60" height="30" as="geometry" />
        </mxCell>
        <mxCell id="T2VyFEbcRSwweSqbqmeI-21" value="" style="html=1;points=[[0,0,0,0,5],[0,1,0,0,-5],[1,0,0,0,5],[1,1,0,0,-5]];perimeter=orthogonalPerimeter;outlineConnect=0;targetShapes=umlLifeline;portConstraint=eastwest;newEdgeStyle={&quot;curved&quot;:0,&quot;rounded&quot;:0};" vertex="1" parent="2sW75nbbZIL8vPLbLa2m-1">
          <mxGeometry x="283" y="613" width="10" height="40" as="geometry" />
        </mxCell>
        <mxCell id="T2VyFEbcRSwweSqbqmeI-22" value="等待Region真正创建好" style="html=1;align=left;spacingLeft=2;endArrow=block;rounded=0;edgeStyle=orthogonalEdgeStyle;curved=0;rounded=0;" edge="1" parent="2sW75nbbZIL8vPLbLa2m-1" target="T2VyFEbcRSwweSqbqmeI-21">
          <mxGeometry x="0.0118" relative="1" as="geometry">
            <mxPoint x="288" y="593" as="sourcePoint" />
            <Array as="points">
              <mxPoint x="318" y="623" />
            </Array>
            <mxPoint as="offset" />
          </mxGeometry>
        </mxCell>
        <mxCell id="T2VyFEbcRSwweSqbqmeI-23" value="" style="shape=umlLifeline;participant=umlEntity;perimeter=lifelinePerimeter;whiteSpace=wrap;html=1;container=1;collapsible=0;recursiveResize=0;verticalAlign=top;spacingTop=36;outlineConnect=0;" vertex="1" parent="2sW75nbbZIL8vPLbLa2m-1">
          <mxGeometry x="455" y="403" width="40" height="300" as="geometry" />
        </mxCell>
        <mxCell id="T2VyFEbcRSwweSqbqmeI-24" value="" style="html=1;points=[[0,0,0,0,5],[0,1,0,0,-5],[1,0,0,0,5],[1,1,0,0,-5]];perimeter=orthogonalPerimeter;outlineConnect=0;targetShapes=umlLifeline;portConstraint=eastwest;newEdgeStyle={&quot;curved&quot;:0,&quot;rounded&quot;:0};" vertex="1" parent="T2VyFEbcRSwweSqbqmeI-23">
          <mxGeometry x="15" y="110" width="10" height="40" as="geometry" />
        </mxCell>
        <mxCell id="T2VyFEbcRSwweSqbqmeI-25" value="创建Region定义" style="html=1;align=left;spacingLeft=2;endArrow=block;rounded=0;edgeStyle=orthogonalEdgeStyle;curved=0;rounded=0;" edge="1" parent="T2VyFEbcRSwweSqbqmeI-23" target="T2VyFEbcRSwweSqbqmeI-24">
          <mxGeometry relative="1" as="geometry">
            <mxPoint x="20" y="90" as="sourcePoint" />
            <Array as="points">
              <mxPoint x="50" y="120" />
            </Array>
          </mxGeometry>
        </mxCell>
        <mxCell id="T2VyFEbcRSwweSqbqmeI-26" value="线程3" style="text;html=1;strokeColor=none;fillColor=none;align=center;verticalAlign=middle;whiteSpace=wrap;rounded=0;fontSize=20;" vertex="1" parent="2sW75nbbZIL8vPLbLa2m-1">
          <mxGeometry x="445" y="363" width="60" height="30" as="geometry" />
        </mxCell>
        <mxCell id="T2VyFEbcRSwweSqbqmeI-27" value="" style="html=1;points=[[0,0,0,0,5],[0,1,0,0,-5],[1,0,0,0,5],[1,1,0,0,-5]];perimeter=orthogonalPerimeter;outlineConnect=0;targetShapes=umlLifeline;portConstraint=eastwest;newEdgeStyle={&quot;curved&quot;:0,&quot;rounded&quot;:0};" vertex="1" parent="2sW75nbbZIL8vPLbLa2m-1">
          <mxGeometry x="469" y="613" width="10" height="40" as="geometry" />
        </mxCell>
        <mxCell id="T2VyFEbcRSwweSqbqmeI-28" value="等待Region真正创建好" style="html=1;align=left;spacingLeft=2;endArrow=block;rounded=0;edgeStyle=orthogonalEdgeStyle;curved=0;rounded=0;" edge="1" parent="2sW75nbbZIL8vPLbLa2m-1" target="T2VyFEbcRSwweSqbqmeI-27">
          <mxGeometry x="0.0118" relative="1" as="geometry">
            <mxPoint x="474" y="593" as="sourcePoint" />
            <Array as="points">
              <mxPoint x="504" y="623" />
            </Array>
            <mxPoint as="offset" />
          </mxGeometry>
        </mxCell>
        <mxCell id="T2VyFEbcRSwweSqbqmeI-29" value="" style="shape=umlLifeline;participant=umlEntity;perimeter=lifelinePerimeter;whiteSpace=wrap;html=1;container=1;collapsible=0;recursiveResize=0;verticalAlign=top;spacingTop=36;outlineConnect=0;" vertex="1" parent="2sW75nbbZIL8vPLbLa2m-1">
          <mxGeometry x="629" y="403" width="40" height="300" as="geometry" />
        </mxCell>
        <mxCell id="T2VyFEbcRSwweSqbqmeI-30" value="" style="html=1;points=[[0,0,0,0,5],[0,1,0,0,-5],[1,0,0,0,5],[1,1,0,0,-5]];perimeter=orthogonalPerimeter;outlineConnect=0;targetShapes=umlLifeline;portConstraint=eastwest;newEdgeStyle={&quot;curved&quot;:0,&quot;rounded&quot;:0};" vertex="1" parent="T2VyFEbcRSwweSqbqmeI-29">
          <mxGeometry x="15" y="110" width="10" height="40" as="geometry" />
        </mxCell>
        <mxCell id="T2VyFEbcRSwweSqbqmeI-31" value="创建Region定义" style="html=1;align=left;spacingLeft=2;endArrow=block;rounded=0;edgeStyle=orthogonalEdgeStyle;curved=0;rounded=0;" edge="1" parent="T2VyFEbcRSwweSqbqmeI-29" target="T2VyFEbcRSwweSqbqmeI-30">
          <mxGeometry relative="1" as="geometry">
            <mxPoint x="20" y="90" as="sourcePoint" />
            <Array as="points">
              <mxPoint x="50" y="120" />
            </Array>
          </mxGeometry>
        </mxCell>
        <mxCell id="T2VyFEbcRSwweSqbqmeI-32" value="线程4" style="text;html=1;strokeColor=none;fillColor=none;align=center;verticalAlign=middle;whiteSpace=wrap;rounded=0;fontSize=20;" vertex="1" parent="2sW75nbbZIL8vPLbLa2m-1">
          <mxGeometry x="619" y="363" width="60" height="30" as="geometry" />
        </mxCell>
        <mxCell id="T2VyFEbcRSwweSqbqmeI-33" value="" style="html=1;points=[[0,0,0,0,5],[0,1,0,0,-5],[1,0,0,0,5],[1,1,0,0,-5]];perimeter=orthogonalPerimeter;outlineConnect=0;targetShapes=umlLifeline;portConstraint=eastwest;newEdgeStyle={&quot;curved&quot;:0,&quot;rounded&quot;:0};" vertex="1" parent="2sW75nbbZIL8vPLbLa2m-1">
          <mxGeometry x="643" y="613" width="10" height="40" as="geometry" />
        </mxCell>
        <mxCell id="T2VyFEbcRSwweSqbqmeI-34" value="等待Region真正创建好" style="html=1;align=left;spacingLeft=2;endArrow=block;rounded=0;edgeStyle=orthogonalEdgeStyle;curved=0;rounded=0;" edge="1" parent="2sW75nbbZIL8vPLbLa2m-1" target="T2VyFEbcRSwweSqbqmeI-33">
          <mxGeometry x="0.0118" relative="1" as="geometry">
            <mxPoint x="648" y="593" as="sourcePoint" />
            <Array as="points">
              <mxPoint x="678" y="623" />
            </Array>
            <mxPoint as="offset" />
          </mxGeometry>
        </mxCell>
      </root>
    </mxGraphModel>
  </diagram>
  <diagram name="CreateRegion-方法2" id="3fyqztgPWhu5U_pFipwx">
    <mxGraphModel dx="1434" dy="844" grid="1" gridSize="10" guides="1" tooltips="1" connect="1" arrows="1" fold="1" page="1" pageScale="1" pageWidth="827" pageHeight="1169" math="0" shadow="0">
      <root>
        <mxCell id="tLK0dUvfDTt7u062Jb7R-0" />
        <mxCell id="tLK0dUvfDTt7u062Jb7R-1" parent="tLK0dUvfDTt7u062Jb7R-0" />
        <mxCell id="tLK0dUvfDTt7u062Jb7R-2" value="" style="shape=umlLifeline;participant=umlEntity;perimeter=lifelinePerimeter;whiteSpace=wrap;html=1;container=1;collapsible=0;recursiveResize=0;verticalAlign=top;spacingTop=36;outlineConnect=0;" vertex="1" parent="tLK0dUvfDTt7u062Jb7R-1">
          <mxGeometry x="95" y="403" width="40" height="300" as="geometry" />
        </mxCell>
        <mxCell id="tLK0dUvfDTt7u062Jb7R-3" value="" style="html=1;points=[[0,0,0,0,5],[0,1,0,0,-5],[1,0,0,0,5],[1,1,0,0,-5]];perimeter=orthogonalPerimeter;outlineConnect=0;targetShapes=umlLifeline;portConstraint=eastwest;newEdgeStyle={&quot;curved&quot;:0,&quot;rounded&quot;:0};" vertex="1" parent="tLK0dUvfDTt7u062Jb7R-2">
          <mxGeometry x="15" y="110" width="10" height="40" as="geometry" />
        </mxCell>
        <mxCell id="tLK0dUvfDTt7u062Jb7R-4" value="创建Region定义" style="html=1;align=left;spacingLeft=2;endArrow=block;rounded=0;edgeStyle=orthogonalEdgeStyle;curved=0;rounded=0;" edge="1" parent="tLK0dUvfDTt7u062Jb7R-2" target="tLK0dUvfDTt7u062Jb7R-3">
          <mxGeometry relative="1" as="geometry">
            <mxPoint x="20" y="90" as="sourcePoint" />
            <Array as="points">
              <mxPoint x="50" y="120" />
            </Array>
          </mxGeometry>
        </mxCell>
        <mxCell id="tLK0dUvfDTt7u062Jb7R-5" value="线程1" style="text;html=1;strokeColor=none;fillColor=none;align=center;verticalAlign=middle;whiteSpace=wrap;rounded=0;fontSize=20;" vertex="1" parent="tLK0dUvfDTt7u062Jb7R-1">
          <mxGeometry x="85" y="363" width="60" height="30" as="geometry" />
        </mxCell>
        <mxCell id="tLK0dUvfDTt7u062Jb7R-8" value="" style="shape=umlLifeline;participant=umlEntity;perimeter=lifelinePerimeter;whiteSpace=wrap;html=1;container=1;collapsible=0;recursiveResize=0;verticalAlign=top;spacingTop=36;outlineConnect=0;" vertex="1" parent="tLK0dUvfDTt7u062Jb7R-1">
          <mxGeometry x="269" y="403" width="40" height="300" as="geometry" />
        </mxCell>
        <mxCell id="tLK0dUvfDTt7u062Jb7R-9" value="" style="html=1;points=[[0,0,0,0,5],[0,1,0,0,-5],[1,0,0,0,5],[1,1,0,0,-5]];perimeter=orthogonalPerimeter;outlineConnect=0;targetShapes=umlLifeline;portConstraint=eastwest;newEdgeStyle={&quot;curved&quot;:0,&quot;rounded&quot;:0};" vertex="1" parent="tLK0dUvfDTt7u062Jb7R-8">
          <mxGeometry x="15" y="110" width="10" height="40" as="geometry" />
        </mxCell>
        <mxCell id="tLK0dUvfDTt7u062Jb7R-10" value="创建Region定义" style="html=1;align=left;spacingLeft=2;endArrow=block;rounded=0;edgeStyle=orthogonalEdgeStyle;curved=0;rounded=0;" edge="1" parent="tLK0dUvfDTt7u062Jb7R-8" target="tLK0dUvfDTt7u062Jb7R-9">
          <mxGeometry relative="1" as="geometry">
            <mxPoint x="20" y="90" as="sourcePoint" />
            <Array as="points">
              <mxPoint x="50" y="120" />
            </Array>
          </mxGeometry>
        </mxCell>
        <mxCell id="tLK0dUvfDTt7u062Jb7R-11" value="线程2" style="text;html=1;strokeColor=none;fillColor=none;align=center;verticalAlign=middle;whiteSpace=wrap;rounded=0;fontSize=20;" vertex="1" parent="tLK0dUvfDTt7u062Jb7R-1">
          <mxGeometry x="259" y="363" width="60" height="30" as="geometry" />
        </mxCell>
        <mxCell id="tLK0dUvfDTt7u062Jb7R-14" value="" style="shape=umlLifeline;participant=umlEntity;perimeter=lifelinePerimeter;whiteSpace=wrap;html=1;container=1;collapsible=0;recursiveResize=0;verticalAlign=top;spacingTop=36;outlineConnect=0;" vertex="1" parent="tLK0dUvfDTt7u062Jb7R-1">
          <mxGeometry x="455" y="403" width="40" height="300" as="geometry" />
        </mxCell>
        <mxCell id="tLK0dUvfDTt7u062Jb7R-15" value="" style="html=1;points=[[0,0,0,0,5],[0,1,0,0,-5],[1,0,0,0,5],[1,1,0,0,-5]];perimeter=orthogonalPerimeter;outlineConnect=0;targetShapes=umlLifeline;portConstraint=eastwest;newEdgeStyle={&quot;curved&quot;:0,&quot;rounded&quot;:0};" vertex="1" parent="tLK0dUvfDTt7u062Jb7R-14">
          <mxGeometry x="15" y="110" width="10" height="40" as="geometry" />
        </mxCell>
        <mxCell id="tLK0dUvfDTt7u062Jb7R-16" value="创建Region定义" style="html=1;align=left;spacingLeft=2;endArrow=block;rounded=0;edgeStyle=orthogonalEdgeStyle;curved=0;rounded=0;" edge="1" parent="tLK0dUvfDTt7u062Jb7R-14" target="tLK0dUvfDTt7u062Jb7R-15">
          <mxGeometry relative="1" as="geometry">
            <mxPoint x="20" y="90" as="sourcePoint" />
            <Array as="points">
              <mxPoint x="50" y="120" />
            </Array>
          </mxGeometry>
        </mxCell>
        <mxCell id="tLK0dUvfDTt7u062Jb7R-17" value="线程3" style="text;html=1;strokeColor=none;fillColor=none;align=center;verticalAlign=middle;whiteSpace=wrap;rounded=0;fontSize=20;" vertex="1" parent="tLK0dUvfDTt7u062Jb7R-1">
          <mxGeometry x="445" y="363" width="60" height="30" as="geometry" />
        </mxCell>
        <mxCell id="tLK0dUvfDTt7u062Jb7R-20" value="" style="shape=umlLifeline;participant=umlEntity;perimeter=lifelinePerimeter;whiteSpace=wrap;html=1;container=1;collapsible=0;recursiveResize=0;verticalAlign=top;spacingTop=36;outlineConnect=0;" vertex="1" parent="tLK0dUvfDTt7u062Jb7R-1">
          <mxGeometry x="629" y="403" width="40" height="300" as="geometry" />
        </mxCell>
        <mxCell id="tLK0dUvfDTt7u062Jb7R-21" value="" style="html=1;points=[[0,0,0,0,5],[0,1,0,0,-5],[1,0,0,0,5],[1,1,0,0,-5]];perimeter=orthogonalPerimeter;outlineConnect=0;targetShapes=umlLifeline;portConstraint=eastwest;newEdgeStyle={&quot;curved&quot;:0,&quot;rounded&quot;:0};" vertex="1" parent="tLK0dUvfDTt7u062Jb7R-20">
          <mxGeometry x="15" y="110" width="10" height="40" as="geometry" />
        </mxCell>
        <mxCell id="tLK0dUvfDTt7u062Jb7R-22" value="创建Region定义" style="html=1;align=left;spacingLeft=2;endArrow=block;rounded=0;edgeStyle=orthogonalEdgeStyle;curved=0;rounded=0;" edge="1" parent="tLK0dUvfDTt7u062Jb7R-20" target="tLK0dUvfDTt7u062Jb7R-21">
          <mxGeometry relative="1" as="geometry">
            <mxPoint x="20" y="90" as="sourcePoint" />
            <Array as="points">
              <mxPoint x="50" y="120" />
            </Array>
          </mxGeometry>
        </mxCell>
        <mxCell id="tLK0dUvfDTt7u062Jb7R-23" value="线程4" style="text;html=1;strokeColor=none;fillColor=none;align=center;verticalAlign=middle;whiteSpace=wrap;rounded=0;fontSize=20;" vertex="1" parent="tLK0dUvfDTt7u062Jb7R-1">
          <mxGeometry x="619" y="363" width="60" height="30" as="geometry" />
        </mxCell>
        <mxCell id="y1VdPqAhH0FSApMirW8O-0" value="" style="endArrow=none;dashed=1;html=1;dashPattern=1 3;strokeWidth=2;rounded=0;" edge="1" parent="tLK0dUvfDTt7u062Jb7R-1">
          <mxGeometry width="50" height="50" relative="1" as="geometry">
            <mxPoint x="100" y="730" as="sourcePoint" />
            <mxPoint x="750" y="730" as="targetPoint" />
          </mxGeometry>
        </mxCell>
        <mxCell id="y1VdPqAhH0FSApMirW8O-1" value="" style="shape=umlLifeline;participant=umlEntity;perimeter=lifelinePerimeter;whiteSpace=wrap;html=1;container=1;collapsible=0;recursiveResize=0;verticalAlign=top;spacingTop=36;outlineConnect=0;" vertex="1" parent="tLK0dUvfDTt7u062Jb7R-1">
          <mxGeometry x="330" y="790" width="40" height="300" as="geometry" />
        </mxCell>
        <mxCell id="y1VdPqAhH0FSApMirW8O-4" value="线程5" style="text;html=1;strokeColor=none;fillColor=none;align=center;verticalAlign=middle;whiteSpace=wrap;rounded=0;fontSize=20;" vertex="1" parent="tLK0dUvfDTt7u062Jb7R-1">
          <mxGeometry x="320" y="750" width="60" height="30" as="geometry" />
        </mxCell>
        <mxCell id="y1VdPqAhH0FSApMirW8O-5" value="" style="html=1;points=[[0,0,0,0,5],[0,1,0,0,-5],[1,0,0,0,5],[1,1,0,0,-5]];perimeter=orthogonalPerimeter;outlineConnect=0;targetShapes=umlLifeline;portConstraint=eastwest;newEdgeStyle={&quot;curved&quot;:0,&quot;rounded&quot;:0};" vertex="1" parent="tLK0dUvfDTt7u062Jb7R-1">
          <mxGeometry x="344" y="933" width="10" height="40" as="geometry" />
        </mxCell>
        <mxCell id="y1VdPqAhH0FSApMirW8O-6" value="等待所有Region真正创建好" style="html=1;align=left;spacingLeft=2;endArrow=block;rounded=0;edgeStyle=orthogonalEdgeStyle;curved=0;rounded=0;" edge="1" parent="tLK0dUvfDTt7u062Jb7R-1" target="y1VdPqAhH0FSApMirW8O-5">
          <mxGeometry x="0.0118" relative="1" as="geometry">
            <mxPoint x="349" y="913" as="sourcePoint" />
            <Array as="points">
              <mxPoint x="379" y="943" />
            </Array>
            <mxPoint as="offset" />
          </mxGeometry>
        </mxCell>
      </root>
    </mxGraphModel>
  </diagram>
  <diagram name="Coordinator处理任务方式" id="W-a1Dt5Og8T2262R8P_o">
    <mxGraphModel dx="1434" dy="844" grid="1" gridSize="10" guides="1" tooltips="1" connect="1" arrows="1" fold="1" page="1" pageScale="1" pageWidth="827" pageHeight="1169" math="0" shadow="0">
      <root>
        <mxCell id="3JKRgcyfkMOgg2Qo2Mo7-0" />
        <mxCell id="3JKRgcyfkMOgg2Qo2Mo7-1" parent="3JKRgcyfkMOgg2Qo2Mo7-0" />
        <mxCell id="3JKRgcyfkMOgg2Qo2Mo7-3" value="" style="rounded=0;whiteSpace=wrap;html=1;fontSize=15;" parent="3JKRgcyfkMOgg2Qo2Mo7-1" vertex="1">
          <mxGeometry x="480" y="250" width="160" height="130" as="geometry" />
        </mxCell>
        <mxCell id="3JKRgcyfkMOgg2Qo2Mo7-5" value="" style="shape=umlLifeline;participant=umlEntity;perimeter=lifelinePerimeter;whiteSpace=wrap;html=1;container=1;collapsible=0;recursiveResize=0;verticalAlign=top;spacingTop=36;outlineConnect=0;" parent="3JKRgcyfkMOgg2Qo2Mo7-1" vertex="1">
          <mxGeometry x="340" y="230" width="40" height="550" as="geometry" />
        </mxCell>
        <mxCell id="3JKRgcyfkMOgg2Qo2Mo7-9" value="Coordinator" style="text;html=1;strokeColor=none;fillColor=none;align=center;verticalAlign=middle;whiteSpace=wrap;rounded=0;fontSize=20;" parent="3JKRgcyfkMOgg2Qo2Mo7-1" vertex="1">
          <mxGeometry x="330" y="190" width="60" height="30" as="geometry" />
        </mxCell>
        <mxCell id="3JKRgcyfkMOgg2Qo2Mo7-12" value="任务1" style="rounded=0;whiteSpace=wrap;html=1;fontSize=20;" parent="3JKRgcyfkMOgg2Qo2Mo7-1" vertex="1">
          <mxGeometry x="500" y="268" width="120" height="30" as="geometry" />
        </mxCell>
        <mxCell id="3JKRgcyfkMOgg2Qo2Mo7-13" value="任务2" style="rounded=0;whiteSpace=wrap;html=1;fontSize=20;" parent="3JKRgcyfkMOgg2Qo2Mo7-1" vertex="1">
          <mxGeometry x="500" y="298" width="120" height="30" as="geometry" />
        </mxCell>
        <mxCell id="3JKRgcyfkMOgg2Qo2Mo7-14" value="任务3" style="rounded=0;whiteSpace=wrap;html=1;fontSize=20;" parent="3JKRgcyfkMOgg2Qo2Mo7-1" vertex="1">
          <mxGeometry x="500" y="328" width="120" height="30" as="geometry" />
        </mxCell>
        <mxCell id="3JKRgcyfkMOgg2Qo2Mo7-20" value="" style="endArrow=classic;html=1;fontSize=50;entryX=0;entryY=0.5;entryDx=0;entryDy=0;" parent="3JKRgcyfkMOgg2Qo2Mo7-1" source="3JKRgcyfkMOgg2Qo2Mo7-5" target="3JKRgcyfkMOgg2Qo2Mo7-13" edge="1">
          <mxGeometry width="50" height="50" relative="1" as="geometry">
            <mxPoint x="360" y="340" as="sourcePoint" />
            <mxPoint x="410" y="290" as="targetPoint" />
          </mxGeometry>
        </mxCell>
        <mxCell id="3JKRgcyfkMOgg2Qo2Mo7-24" value="&lt;font style=&quot;font-size: 15px;&quot;&gt;获取任务&lt;/font&gt;" style="text;html=1;strokeColor=none;fillColor=none;align=center;verticalAlign=middle;whiteSpace=wrap;rounded=0;fontSize=10;" parent="3JKRgcyfkMOgg2Qo2Mo7-1" vertex="1">
          <mxGeometry x="380" y="289" width="90" height="30" as="geometry" />
        </mxCell>
        <mxCell id="3JKRgcyfkMOgg2Qo2Mo7-27" value="工作队列" style="text;html=1;strokeColor=none;fillColor=none;align=center;verticalAlign=middle;whiteSpace=wrap;rounded=0;fontSize=15;" parent="3JKRgcyfkMOgg2Qo2Mo7-1" vertex="1">
          <mxGeometry x="520" y="210" width="70" height="30" as="geometry" />
        </mxCell>
        <mxCell id="X1w3tF383Te9LMh71HlJ-0" value="" style="rounded=0;whiteSpace=wrap;html=1;fontSize=15;" vertex="1" parent="3JKRgcyfkMOgg2Qo2Mo7-1">
          <mxGeometry x="478" y="400" width="160" height="130" as="geometry" />
        </mxCell>
        <mxCell id="X1w3tF383Te9LMh71HlJ-1" value="任务1" style="rounded=0;whiteSpace=wrap;html=1;fontSize=20;" vertex="1" parent="3JKRgcyfkMOgg2Qo2Mo7-1">
          <mxGeometry x="498" y="418" width="120" height="30" as="geometry" />
        </mxCell>
        <mxCell id="X1w3tF383Te9LMh71HlJ-2" value="任务2" style="rounded=0;whiteSpace=wrap;html=1;fontSize=20;" vertex="1" parent="3JKRgcyfkMOgg2Qo2Mo7-1">
          <mxGeometry x="498" y="448" width="120" height="30" as="geometry" />
        </mxCell>
        <mxCell id="X1w3tF383Te9LMh71HlJ-3" value="任务3" style="rounded=0;whiteSpace=wrap;html=1;fontSize=20;" vertex="1" parent="3JKRgcyfkMOgg2Qo2Mo7-1">
          <mxGeometry x="498" y="478" width="120" height="30" as="geometry" />
        </mxCell>
        <mxCell id="X1w3tF383Te9LMh71HlJ-4" value="" style="endArrow=classic;html=1;fontSize=50;entryX=0;entryY=0.5;entryDx=0;entryDy=0;" edge="1" parent="3JKRgcyfkMOgg2Qo2Mo7-1" target="X1w3tF383Te9LMh71HlJ-2">
          <mxGeometry width="50" height="50" relative="1" as="geometry">
            <mxPoint x="358" y="463" as="sourcePoint" />
            <mxPoint x="408" y="440" as="targetPoint" />
          </mxGeometry>
        </mxCell>
        <mxCell id="X1w3tF383Te9LMh71HlJ-5" value="&lt;font style=&quot;font-size: 15px;&quot;&gt;获取任务&lt;/font&gt;" style="text;html=1;strokeColor=none;fillColor=none;align=center;verticalAlign=middle;whiteSpace=wrap;rounded=0;fontSize=10;" vertex="1" parent="3JKRgcyfkMOgg2Qo2Mo7-1">
          <mxGeometry x="378" y="439" width="90" height="30" as="geometry" />
        </mxCell>
        <mxCell id="X1w3tF383Te9LMh71HlJ-6" value="" style="rounded=0;whiteSpace=wrap;html=1;fontSize=15;" vertex="1" parent="3JKRgcyfkMOgg2Qo2Mo7-1">
          <mxGeometry x="480" y="560" width="160" height="130" as="geometry" />
        </mxCell>
        <mxCell id="X1w3tF383Te9LMh71HlJ-7" value="任务1" style="rounded=0;whiteSpace=wrap;html=1;fontSize=20;" vertex="1" parent="3JKRgcyfkMOgg2Qo2Mo7-1">
          <mxGeometry x="500" y="578" width="120" height="30" as="geometry" />
        </mxCell>
        <mxCell id="X1w3tF383Te9LMh71HlJ-8" value="任务2" style="rounded=0;whiteSpace=wrap;html=1;fontSize=20;" vertex="1" parent="3JKRgcyfkMOgg2Qo2Mo7-1">
          <mxGeometry x="500" y="608" width="120" height="30" as="geometry" />
        </mxCell>
        <mxCell id="X1w3tF383Te9LMh71HlJ-9" value="任务3" style="rounded=0;whiteSpace=wrap;html=1;fontSize=20;" vertex="1" parent="3JKRgcyfkMOgg2Qo2Mo7-1">
          <mxGeometry x="500" y="638" width="120" height="30" as="geometry" />
        </mxCell>
        <mxCell id="X1w3tF383Te9LMh71HlJ-10" value="" style="endArrow=classic;html=1;fontSize=50;entryX=0;entryY=0.5;entryDx=0;entryDy=0;" edge="1" parent="3JKRgcyfkMOgg2Qo2Mo7-1" target="X1w3tF383Te9LMh71HlJ-8">
          <mxGeometry width="50" height="50" relative="1" as="geometry">
            <mxPoint x="360" y="623" as="sourcePoint" />
            <mxPoint x="410" y="600" as="targetPoint" />
          </mxGeometry>
        </mxCell>
        <mxCell id="X1w3tF383Te9LMh71HlJ-11" value="&lt;font style=&quot;font-size: 15px;&quot;&gt;获取任务&lt;/font&gt;" style="text;html=1;strokeColor=none;fillColor=none;align=center;verticalAlign=middle;whiteSpace=wrap;rounded=0;fontSize=10;" vertex="1" parent="3JKRgcyfkMOgg2Qo2Mo7-1">
          <mxGeometry x="380" y="599" width="90" height="30" as="geometry" />
        </mxCell>
      </root>
    </mxGraphModel>
  </diagram>
</mxfile>
